<mxfile host="65bd71144e">
    <diagram id="Sq76xkwmjCW06V4b-h0d" name="MainFlow">
        <mxGraphModel dx="1071" dy="827" grid="1" gridSize="10" guides="1" tooltips="1" connect="1" arrows="1" fold="1" page="1" pageScale="1" pageWidth="850" pageHeight="1100" math="0" shadow="0">
            <root>
                <mxCell id="0"/>
                <mxCell id="1" parent="0"/>
                <mxCell id="USzmQiBSqQcF5wfpKRN4-1" value="&lt;div style=&quot;&quot;&gt;&lt;span style=&quot;font-size: 17px; background-color: initial;&quot;&gt;1. The IDirector object is created via DirectorBuilder class with minimum required properties, such as:&lt;/span&gt;&lt;/div&gt;&lt;font style=&quot;&quot;&gt;&lt;div style=&quot;font-size: 17px;&quot;&gt;&lt;span style=&quot;background-color: initial;&quot;&gt;- FileToSave&lt;/span&gt;&lt;/div&gt;&lt;div style=&quot;font-size: 17px;&quot;&gt;&lt;span style=&quot;background-color: initial;&quot;&gt;- Timeout value (ms)&lt;/span&gt;&lt;/div&gt;&lt;div style=&quot;font-size: 17px;&quot;&gt;&lt;span style=&quot;background-color: initial;&quot;&gt;- Adds Read and Write Services.&lt;/span&gt;&lt;/div&gt;&lt;div style=&quot;&quot;&gt;&lt;span style=&quot;font-size: 17px;&quot;&gt;&lt;br&gt;&lt;/span&gt;&lt;/div&gt;&lt;span style=&quot;font-size: 17px;&quot;&gt;&lt;div style=&quot;&quot;&gt;&lt;span style=&quot;background-color: initial;&quot;&gt;2. The method IDirector.RunAsync() is called to begin the work.&lt;/span&gt;&lt;/div&gt;&lt;/span&gt;&lt;div style=&quot;&quot;&gt;&lt;br&gt;&lt;/div&gt;&lt;div style=&quot;&quot;&gt;&lt;br&gt;&lt;/div&gt;&lt;span style=&quot;font-size: 17px;&quot;&gt;&lt;div style=&quot;&quot;&gt;&lt;span style=&quot;background-color: initial;&quot;&gt;3. After the Timeout ends,&amp;nbsp; the Director will perform work and update all tracked Apps, and will call WriteService to write info into file.&lt;/span&gt;&lt;/div&gt;&lt;div style=&quot;&quot;&gt;&lt;br&gt;&lt;/div&gt;&lt;/span&gt;&lt;/font&gt;" style="rounded=0;whiteSpace=wrap;html=1;align=center;" vertex="1" parent="1">
                    <mxGeometry y="60" width="850" height="270" as="geometry"/>
                </mxCell>
                <mxCell id="USzmQiBSqQcF5wfpKRN4-2" value="Application Main Flow" style="text;align=center;fontStyle=1;verticalAlign=middle;spacingLeft=3;spacingRight=3;strokeColor=none;rotatable=0;points=[[0,0.5],[1,0.5]];portConstraint=eastwest;fontSize=17;" vertex="1" parent="1">
                    <mxGeometry x="370" y="10" width="80" height="26" as="geometry"/>
                </mxCell>
                <mxCell id="USzmQiBSqQcF5wfpKRN4-11" value="" style="edgeStyle=none;html=1;fontSize=14;" edge="1" parent="1" source="USzmQiBSqQcF5wfpKRN4-4" target="USzmQiBSqQcF5wfpKRN4-10">
                    <mxGeometry relative="1" as="geometry"/>
                </mxCell>
                <mxCell id="USzmQiBSqQcF5wfpKRN4-4" value="&lt;font style=&quot;font-size: 13px;&quot;&gt;IDirectorBuilder&lt;/font&gt;" style="html=1;fontSize=17;" vertex="1" parent="1">
                    <mxGeometry x="50" y="410" width="110" height="50" as="geometry"/>
                </mxCell>
                <mxCell id="USzmQiBSqQcF5wfpKRN4-13" value="" style="edgeStyle=none;html=1;fontSize=14;" edge="1" parent="1" source="USzmQiBSqQcF5wfpKRN4-10" target="USzmQiBSqQcF5wfpKRN4-12">
                    <mxGeometry relative="1" as="geometry"/>
                </mxCell>
                <mxCell id="USzmQiBSqQcF5wfpKRN4-10" value="&lt;font style=&quot;font-size: 13px;&quot;&gt;Builds IDirector object&lt;/font&gt;" style="ellipse;whiteSpace=wrap;html=1;fontSize=17;" vertex="1" parent="1">
                    <mxGeometry x="210" y="402.5" width="170" height="65" as="geometry"/>
                </mxCell>
                <mxCell id="USzmQiBSqQcF5wfpKRN4-16" value="" style="edgeStyle=none;html=1;fontSize=14;" edge="1" parent="1" source="USzmQiBSqQcF5wfpKRN4-12" target="USzmQiBSqQcF5wfpKRN4-15">
                    <mxGeometry relative="1" as="geometry"/>
                </mxCell>
                <mxCell id="USzmQiBSqQcF5wfpKRN4-12" value="&lt;font style=&quot;font-size: 13px;&quot;&gt;IDirector&lt;/font&gt;" style="whiteSpace=wrap;html=1;fontSize=17;" vertex="1" parent="1">
                    <mxGeometry x="440" y="407.5" width="120" height="60" as="geometry"/>
                </mxCell>
                <mxCell id="USzmQiBSqQcF5wfpKRN4-25" value="" style="edgeStyle=none;html=1;fontSize=15;" edge="1" parent="1" source="USzmQiBSqQcF5wfpKRN4-15" target="USzmQiBSqQcF5wfpKRN4-24">
                    <mxGeometry relative="1" as="geometry"/>
                </mxCell>
                <mxCell id="USzmQiBSqQcF5wfpKRN4-15" value="&lt;font style=&quot;font-size: 13px;&quot;&gt;Start doing all work&lt;/font&gt;" style="ellipse;whiteSpace=wrap;html=1;fontSize=17;" vertex="1" parent="1">
                    <mxGeometry x="630" y="397.5" width="150" height="80" as="geometry"/>
                </mxCell>
                <mxCell id="USzmQiBSqQcF5wfpKRN4-27" value="" style="edgeStyle=none;html=1;fontSize=15;" edge="1" parent="1" source="USzmQiBSqQcF5wfpKRN4-24" target="USzmQiBSqQcF5wfpKRN4-26">
                    <mxGeometry relative="1" as="geometry"/>
                </mxCell>
                <mxCell id="USzmQiBSqQcF5wfpKRN4-24" value="OnTimer Elapsed" style="ellipse;whiteSpace=wrap;html=1;fontSize=17;" vertex="1" parent="1">
                    <mxGeometry x="652.5" y="557.5" width="105" height="102.5" as="geometry"/>
                </mxCell>
                <mxCell id="USzmQiBSqQcF5wfpKRN4-32" value="" style="edgeStyle=none;html=1;fontSize=13;" edge="1" parent="1" source="USzmQiBSqQcF5wfpKRN4-26" target="USzmQiBSqQcF5wfpKRN4-31">
                    <mxGeometry relative="1" as="geometry"/>
                </mxCell>
                <mxCell id="USzmQiBSqQcF5wfpKRN4-26" value="&lt;font style=&quot;font-size: 13px;&quot;&gt;Run Task for checking and updating every Application state&lt;/font&gt;" style="ellipse;whiteSpace=wrap;html=1;fontSize=17;" vertex="1" parent="1">
                    <mxGeometry x="370" y="563.75" width="202.5" height="90" as="geometry"/>
                </mxCell>
                <mxCell id="USzmQiBSqQcF5wfpKRN4-33" style="edgeStyle=none;html=1;fontSize=13;" edge="1" parent="1" source="USzmQiBSqQcF5wfpKRN4-31" target="USzmQiBSqQcF5wfpKRN4-24">
                    <mxGeometry relative="1" as="geometry">
                        <Array as="points">
                            <mxPoint x="189" y="760"/>
                            <mxPoint x="705" y="760"/>
                        </Array>
                    </mxGeometry>
                </mxCell>
                <mxCell id="USzmQiBSqQcF5wfpKRN4-31" value="&lt;font style=&quot;font-size: 13px;&quot;&gt;Write new Information to file&lt;/font&gt;" style="ellipse;whiteSpace=wrap;html=1;fontSize=17;" vertex="1" parent="1">
                    <mxGeometry x="87.5" y="563.75" width="202.5" height="90" as="geometry"/>
                </mxCell>
            </root>
        </mxGraphModel>
    </diagram>
    <diagram id="BZ-cO62DnmGgJZc8tXrm" name="TrackedAppWorkFlow">
        <mxGraphModel dx="1071" dy="827" grid="1" gridSize="10" guides="1" tooltips="1" connect="1" arrows="1" fold="1" page="1" pageScale="1" pageWidth="850" pageHeight="1100" math="0" shadow="0">
            <root>
                <mxCell id="0"/>
                <mxCell id="1" parent="0"/>
                <mxCell id="vjMBUKkElE8_SVuK97PD-60" style="edgeStyle=none;html=1;" parent="1" source="2" target="11" edge="1">
                    <mxGeometry relative="1" as="geometry"/>
                </mxCell>
                <mxCell id="vjMBUKkElE8_SVuK97PD-61" value="Has List of" style="edgeLabel;html=1;align=center;verticalAlign=middle;resizable=0;points=[];" parent="vjMBUKkElE8_SVuK97PD-60" vertex="1" connectable="0">
                    <mxGeometry x="-0.3556" relative="1" as="geometry">
                        <mxPoint as="offset"/>
                    </mxGeometry>
                </mxCell>
                <mxCell id="2" value="AppInstance&lt;br&gt;(instance of 1 App)" style="rounded=0;whiteSpace=wrap;html=1;" parent="1" vertex="1">
                    <mxGeometry x="550" y="220" width="120" height="60" as="geometry"/>
                </mxCell>
                <mxCell id="11" value="UpTime&lt;br&gt;(single Uptime for Date)" style="rounded=0;whiteSpace=wrap;html=1;" parent="1" vertex="1">
                    <mxGeometry x="540" y="70" width="140" height="60" as="geometry"/>
                </mxCell>
                <mxCell id="39" value="&lt;b&gt;AppStateChecker&lt;/b&gt;" style="html=1;" parent="1" vertex="1">
                    <mxGeometry x="20" y="525" width="110" height="50" as="geometry"/>
                </mxCell>
                <mxCell id="41" value="&lt;b&gt;AppTimeTracker&lt;/b&gt;" style="html=1;" parent="1" vertex="1">
                    <mxGeometry x="170" y="525" width="110" height="50" as="geometry"/>
                </mxCell>
                <mxCell id="44" style="edgeStyle=none;html=1;" parent="1" source="43" target="2" edge="1">
                    <mxGeometry relative="1" as="geometry">
                        <mxPoint x="400" y="289.23076923076906" as="targetPoint"/>
                    </mxGeometry>
                </mxCell>
                <mxCell id="vjMBUKkElE8_SVuK97PD-62" value="Gets The AppInstance" style="edgeLabel;html=1;align=center;verticalAlign=middle;resizable=0;points=[];" parent="44" vertex="1" connectable="0">
                    <mxGeometry x="-0.2991" y="-3" relative="1" as="geometry">
                        <mxPoint as="offset"/>
                    </mxGeometry>
                </mxCell>
                <mxCell id="43" value="IInteractor" style="html=1;" parent="1" vertex="1">
                    <mxGeometry x="400" y="335" width="110" height="50" as="geometry"/>
                </mxCell>
                <mxCell id="Bc6zjtvQ-QecZ-7PF7hh-62" style="edgeStyle=none;html=1;" parent="1" source="52" target="Bc6zjtvQ-QecZ-7PF7hh-61" edge="1">
                    <mxGeometry relative="1" as="geometry"/>
                </mxCell>
                <mxCell id="Bc6zjtvQ-QecZ-7PF7hh-63" value="Uses instance of it" style="edgeLabel;html=1;align=center;verticalAlign=middle;resizable=0;points=[];" parent="Bc6zjtvQ-QecZ-7PF7hh-62" vertex="1" connectable="0">
                    <mxGeometry x="0.3263" y="-3" relative="1" as="geometry">
                        <mxPoint y="1" as="offset"/>
                    </mxGeometry>
                </mxCell>
                <mxCell id="Bc6zjtvQ-QecZ-7PF7hh-65" style="edgeStyle=none;html=1;" parent="1" source="52" target="43" edge="1">
                    <mxGeometry relative="1" as="geometry"/>
                </mxCell>
                <mxCell id="Bc6zjtvQ-QecZ-7PF7hh-72" value="Has" style="edgeLabel;html=1;align=center;verticalAlign=middle;resizable=0;points=[];" parent="Bc6zjtvQ-QecZ-7PF7hh-65" vertex="1" connectable="0">
                    <mxGeometry x="-0.2902" y="-2" relative="1" as="geometry">
                        <mxPoint as="offset"/>
                    </mxGeometry>
                </mxCell>
                <mxCell id="Bc6zjtvQ-QecZ-7PF7hh-66" style="edgeStyle=none;html=1;" parent="1" source="52" target="41" edge="1">
                    <mxGeometry relative="1" as="geometry"/>
                </mxCell>
                <mxCell id="Bc6zjtvQ-QecZ-7PF7hh-71" value="Uses" style="edgeLabel;html=1;align=center;verticalAlign=middle;resizable=0;points=[];" parent="Bc6zjtvQ-QecZ-7PF7hh-66" vertex="1" connectable="0">
                    <mxGeometry x="-0.2598" y="3" relative="1" as="geometry">
                        <mxPoint x="1" as="offset"/>
                    </mxGeometry>
                </mxCell>
                <mxCell id="Bc6zjtvQ-QecZ-7PF7hh-68" style="edgeStyle=none;html=1;" parent="1" source="52" target="39" edge="1">
                    <mxGeometry relative="1" as="geometry"/>
                </mxCell>
                <mxCell id="Bc6zjtvQ-QecZ-7PF7hh-69" value="Uses" style="edgeLabel;html=1;align=center;verticalAlign=middle;resizable=0;points=[];" parent="Bc6zjtvQ-QecZ-7PF7hh-68" vertex="1" connectable="0">
                    <mxGeometry x="-0.304" y="1" relative="1" as="geometry">
                        <mxPoint as="offset"/>
                    </mxGeometry>
                </mxCell>
                <mxCell id="52" value="AppHandler" style="whiteSpace=wrap;html=1;" parent="1" vertex="1">
                    <mxGeometry x="130" y="330" width="120" height="60" as="geometry"/>
                </mxCell>
                <mxCell id="Bc6zjtvQ-QecZ-7PF7hh-61" value="TimerService" style="whiteSpace=wrap;html=1;" parent="1" vertex="1">
                    <mxGeometry x="130" y="120" width="120" height="60" as="geometry"/>
                </mxCell>
                <mxCell id="vjMBUKkElE8_SVuK97PD-53" style="edgeStyle=none;html=1;" parent="1" source="vjMBUKkElE8_SVuK97PD-52" target="2" edge="1">
                    <mxGeometry relative="1" as="geometry"/>
                </mxCell>
                <mxCell id="vjMBUKkElE8_SVuK97PD-54" value="Creates" style="edgeLabel;html=1;align=center;verticalAlign=middle;resizable=0;points=[];" parent="vjMBUKkElE8_SVuK97PD-53" vertex="1" connectable="0">
                    <mxGeometry x="-0.3593" relative="1" as="geometry">
                        <mxPoint as="offset"/>
                    </mxGeometry>
                </mxCell>
                <mxCell id="vjMBUKkElE8_SVuK97PD-52" value="AppInstanceCreator" style="whiteSpace=wrap;html=1;" parent="1" vertex="1">
                    <mxGeometry x="690" y="420" width="120" height="60" as="geometry"/>
                </mxCell>
                <mxCell id="vjMBUKkElE8_SVuK97PD-66" style="edgeStyle=none;html=1;" parent="1" source="vjMBUKkElE8_SVuK97PD-55" target="vjMBUKkElE8_SVuK97PD-59" edge="1">
                    <mxGeometry relative="1" as="geometry"/>
                </mxCell>
                <mxCell id="vjMBUKkElE8_SVuK97PD-67" value="Creates List of Apps from file" style="edgeLabel;html=1;align=center;verticalAlign=middle;resizable=0;points=[];" parent="vjMBUKkElE8_SVuK97PD-66" vertex="1" connectable="0">
                    <mxGeometry x="0.2867" relative="1" as="geometry">
                        <mxPoint as="offset"/>
                    </mxGeometry>
                </mxCell>
                <mxCell id="vjMBUKkElE8_SVuK97PD-55" value="ReadData" style="whiteSpace=wrap;html=1;" parent="1" vertex="1">
                    <mxGeometry x="460" y="695" width="120" height="60" as="geometry"/>
                </mxCell>
                <mxCell id="vjMBUKkElE8_SVuK97PD-56" value="WriteData" style="whiteSpace=wrap;html=1;" parent="1" vertex="1">
                    <mxGeometry x="660" y="695" width="120" height="60" as="geometry"/>
                </mxCell>
                <mxCell id="vjMBUKkElE8_SVuK97PD-63" style="edgeStyle=none;html=1;" parent="1" source="vjMBUKkElE8_SVuK97PD-58" target="vjMBUKkElE8_SVuK97PD-59" edge="1">
                    <mxGeometry relative="1" as="geometry"/>
                </mxCell>
                <mxCell id="vjMBUKkElE8_SVuK97PD-64" value="Creates handler for each app form LIst" style="edgeLabel;html=1;align=center;verticalAlign=middle;resizable=0;points=[];" parent="vjMBUKkElE8_SVuK97PD-63" vertex="1" connectable="0">
                    <mxGeometry x="-0.3093" y="1" relative="1" as="geometry">
                        <mxPoint as="offset"/>
                    </mxGeometry>
                </mxCell>
                <mxCell id="vjMBUKkElE8_SVuK97PD-58" value="&lt;p style=&quot;margin:0px;margin-top:4px;text-align:center;text-decoration:underline;&quot;&gt;&lt;b&gt;List&amp;lt;AppHandler&amp;gt;&lt;/b&gt;&lt;/p&gt;&lt;hr&gt;&lt;p style=&quot;margin:0px;margin-left:8px;&quot;&gt;StartTracking()&lt;/p&gt;" style="verticalAlign=top;align=left;overflow=fill;fontSize=12;fontFamily=Helvetica;html=1;" parent="1" vertex="1">
                    <mxGeometry x="425" y="525" width="160" height="60" as="geometry"/>
                </mxCell>
                <mxCell id="vjMBUKkElE8_SVuK97PD-59" value="&lt;p style=&quot;margin:0px;margin-top:4px;text-align:center;text-decoration:underline;&quot;&gt;&lt;b&gt;List&amp;lt;AppInstance&amp;gt;&lt;/b&gt;&lt;/p&gt;&lt;hr&gt;&lt;p style=&quot;margin:0px;margin-left:8px;&quot;&gt;field1 = value1&lt;br&gt;field2 = value2&lt;br&gt;field3 = value3&lt;/p&gt;" style="verticalAlign=top;align=left;overflow=fill;fontSize=12;fontFamily=Helvetica;html=1;" parent="1" vertex="1">
                    <mxGeometry x="50" y="680" width="160" height="90" as="geometry"/>
                </mxCell>
                <mxCell id="vjMBUKkElE8_SVuK97PD-69" value="1. ReadData Gets the List&amp;lt;AppInstance&amp;gt;&lt;br style=&quot;border-color: var(--border-color);&quot;&gt;2. List&amp;lt;AppHandler&amp;gt; is created and added new objects for each AppInstance from List&lt;br style=&quot;border-color: var(--border-color);&quot;&gt;&lt;br style=&quot;border-color: var(--border-color);&quot;&gt;OR&amp;nbsp;&lt;br style=&quot;border-color: var(--border-color);&quot;&gt;&lt;br style=&quot;border-color: var(--border-color);&quot;&gt;1. AppInstanceCreator creates the AppInstance&lt;br style=&quot;border-color: var(--border-color);&quot;&gt;2. Add AppInstance to List&lt;br style=&quot;border-color: var(--border-color);&quot;&gt;3. Add AppHandler to List&lt;br style=&quot;border-color: var(--border-color);&quot;&gt;&lt;br style=&quot;border-color: var(--border-color);&quot;&gt;NEXT&lt;br style=&quot;border-color: var(--border-color);&quot;&gt;&lt;br style=&quot;border-color: var(--border-color);&quot;&gt;OnTimerElapsed event:&lt;br style=&quot;border-color: var(--border-color);&quot;&gt;1. AppHandler.StartTracking() is called and it updates the AppInstance&lt;br style=&quot;border-color: var(--border-color);&quot;&gt;2. WriteData writes the List&amp;lt;AppInstance&amp;gt; into file" style="html=1;fontSize=14;" parent="1" vertex="1">
                    <mxGeometry x="130" y="780" width="550" height="290" as="geometry"/>
                </mxCell>
            </root>
        </mxGraphModel>
    </diagram>
    <diagram id="vio9tZY0HiVOnr2UPps9" name="TrackedAppClasses">
        <mxGraphModel dx="1071" dy="827" grid="1" gridSize="10" guides="1" tooltips="1" connect="1" arrows="1" fold="1" page="1" pageScale="1" pageWidth="850" pageHeight="1100" math="0" shadow="0">
            <root>
                <mxCell id="0"/>
                <mxCell id="1" parent="0"/>
                <mxCell id="2riPED5oYC9T3TNb9gyd-1" value="AppInstanse" style="swimlane;fontStyle=1;align=center;verticalAlign=top;childLayout=stackLayout;horizontal=1;startSize=26;horizontalStack=0;resizeParent=1;resizeParentMax=0;resizeLast=0;collapsible=1;marginBottom=0;" parent="1" vertex="1">
                    <mxGeometry x="440" y="310" width="160" height="124" as="geometry"/>
                </mxCell>
                <mxCell id="2riPED5oYC9T3TNb9gyd-2" value="+ Id : int&#10;+ Name : string&#10;+ IsRunning : bool&#10;+ UpTimes : List&lt;Uptime&gt;" style="text;strokeColor=none;fillColor=none;align=left;verticalAlign=top;spacingLeft=4;spacingRight=4;overflow=hidden;rotatable=0;points=[[0,0.5],[1,0.5]];portConstraint=eastwest;" parent="2riPED5oYC9T3TNb9gyd-1" vertex="1">
                    <mxGeometry y="26" width="160" height="64" as="geometry"/>
                </mxCell>
                <mxCell id="2riPED5oYC9T3TNb9gyd-3" value="" style="line;strokeWidth=1;fillColor=none;align=left;verticalAlign=middle;spacingTop=-1;spacingLeft=3;spacingRight=3;rotatable=0;labelPosition=right;points=[];portConstraint=eastwest;strokeColor=inherit;" parent="2riPED5oYC9T3TNb9gyd-1" vertex="1">
                    <mxGeometry y="90" width="160" height="8" as="geometry"/>
                </mxCell>
                <mxCell id="2riPED5oYC9T3TNb9gyd-4" value="+ method(type): type" style="text;strokeColor=none;fillColor=none;align=left;verticalAlign=top;spacingLeft=4;spacingRight=4;overflow=hidden;rotatable=0;points=[[0,0.5],[1,0.5]];portConstraint=eastwest;" parent="2riPED5oYC9T3TNb9gyd-1" vertex="1">
                    <mxGeometry y="98" width="160" height="26" as="geometry"/>
                </mxCell>
                <mxCell id="c5aE6hKna7cGHucHUaRy-1" value="UpTime" style="swimlane;fontStyle=1;align=center;verticalAlign=top;childLayout=stackLayout;horizontal=1;startSize=26;horizontalStack=0;resizeParent=1;resizeParentMax=0;resizeLast=0;collapsible=1;marginBottom=0;" parent="1" vertex="1">
                    <mxGeometry x="670" y="316" width="160" height="104" as="geometry">
                        <mxRectangle x="100" y="50" width="110" height="30" as="alternateBounds"/>
                    </mxGeometry>
                </mxCell>
                <mxCell id="c5aE6hKna7cGHucHUaRy-2" value="+ Minutes : int &#10;+ Date : DateOnly" style="text;strokeColor=none;fillColor=none;align=left;verticalAlign=top;spacingLeft=4;spacingRight=4;overflow=hidden;rotatable=0;points=[[0,0.5],[1,0.5]];portConstraint=eastwest;" parent="c5aE6hKna7cGHucHUaRy-1" vertex="1">
                    <mxGeometry y="26" width="160" height="44" as="geometry"/>
                </mxCell>
                <mxCell id="c5aE6hKna7cGHucHUaRy-3" value="" style="line;strokeWidth=1;fillColor=none;align=left;verticalAlign=middle;spacingTop=-1;spacingLeft=3;spacingRight=3;rotatable=0;labelPosition=right;points=[];portConstraint=eastwest;strokeColor=inherit;" parent="c5aE6hKna7cGHucHUaRy-1" vertex="1">
                    <mxGeometry y="70" width="160" height="8" as="geometry"/>
                </mxCell>
                <mxCell id="c5aE6hKna7cGHucHUaRy-4" value="+ method(type): type" style="text;strokeColor=none;fillColor=none;align=left;verticalAlign=top;spacingLeft=4;spacingRight=4;overflow=hidden;rotatable=0;points=[[0,0.5],[1,0.5]];portConstraint=eastwest;" parent="c5aE6hKna7cGHucHUaRy-1" vertex="1">
                    <mxGeometry y="78" width="160" height="26" as="geometry"/>
                </mxCell>
                <mxCell id="M_Fn2lDX56Cs01cFmTBk-2" style="edgeStyle=none;html=1;dashed=1;dashPattern=8 8;" parent="1" source="c5aE6hKna7cGHucHUaRy-5" target="M_Fn2lDX56Cs01cFmTBk-1" edge="1">
                    <mxGeometry relative="1" as="geometry"/>
                </mxCell>
                <mxCell id="c5aE6hKna7cGHucHUaRy-5" value="AppStateChecker" style="swimlane;fontStyle=1;align=center;verticalAlign=top;childLayout=stackLayout;horizontal=1;startSize=26;horizontalStack=0;resizeParent=1;resizeParentMax=0;resizeLast=0;collapsible=1;marginBottom=0;" parent="1" vertex="1">
                    <mxGeometry x="25" y="940" width="160" height="86" as="geometry"/>
                </mxCell>
                <mxCell id="c5aE6hKna7cGHucHUaRy-6" value="+ field: type" style="text;strokeColor=none;fillColor=none;align=left;verticalAlign=top;spacingLeft=4;spacingRight=4;overflow=hidden;rotatable=0;points=[[0,0.5],[1,0.5]];portConstraint=eastwest;" parent="c5aE6hKna7cGHucHUaRy-5" vertex="1">
                    <mxGeometry y="26" width="160" height="26" as="geometry"/>
                </mxCell>
                <mxCell id="c5aE6hKna7cGHucHUaRy-7" value="" style="line;strokeWidth=1;fillColor=none;align=left;verticalAlign=middle;spacingTop=-1;spacingLeft=3;spacingRight=3;rotatable=0;labelPosition=right;points=[];portConstraint=eastwest;strokeColor=inherit;" parent="c5aE6hKna7cGHucHUaRy-5" vertex="1">
                    <mxGeometry y="52" width="160" height="8" as="geometry"/>
                </mxCell>
                <mxCell id="c5aE6hKna7cGHucHUaRy-8" value="+ method(type): type" style="text;strokeColor=none;fillColor=none;align=left;verticalAlign=top;spacingLeft=4;spacingRight=4;overflow=hidden;rotatable=0;points=[[0,0.5],[1,0.5]];portConstraint=eastwest;" parent="c5aE6hKna7cGHucHUaRy-5" vertex="1">
                    <mxGeometry y="60" width="160" height="26" as="geometry"/>
                </mxCell>
                <mxCell id="M_Fn2lDX56Cs01cFmTBk-1" value="&lt;p style=&quot;margin:0px;margin-top:4px;text-align:center;&quot;&gt;&lt;i&gt;&amp;lt;&amp;lt;Interface&amp;gt;&amp;gt;&lt;/i&gt;&lt;br&gt;&lt;b&gt;IAppStateChecker&lt;/b&gt;&lt;/p&gt;&lt;hr size=&quot;1&quot;&gt;&lt;p style=&quot;margin:0px;margin-left:4px;&quot;&gt;+ AppInteractor : Interactor&lt;/p&gt;&lt;hr size=&quot;1&quot;&gt;&lt;p style=&quot;margin:0px;margin-left:4px;&quot;&gt;+ GetAppState () : bool&lt;br&gt;&lt;/p&gt;&lt;p style=&quot;margin:0px;margin-left:4px;&quot;&gt;+ SetAppState(AppInstanceState) : void&lt;/p&gt;" style="verticalAlign=top;align=left;overflow=fill;fontSize=12;fontFamily=Helvetica;html=1;" parent="1" vertex="1">
                    <mxGeometry x="10" y="720" width="220" height="140" as="geometry"/>
                </mxCell>
                <mxCell id="wEJZX17gfzbtgvIJ9ov2-2" style="edgeStyle=none;html=1;" parent="1" source="M_Fn2lDX56Cs01cFmTBk-3" target="2riPED5oYC9T3TNb9gyd-1" edge="1">
                    <mxGeometry relative="1" as="geometry"/>
                </mxCell>
                <mxCell id="M_Fn2lDX56Cs01cFmTBk-3" value="&lt;&lt;Interface&gt;&gt;&#10;IInteractor" style="swimlane;fontStyle=1;align=center;verticalAlign=top;childLayout=stackLayout;horizontal=1;startSize=41;horizontalStack=0;resizeParent=1;resizeParentMax=0;resizeLast=0;collapsible=1;marginBottom=0;" parent="1" vertex="1">
                    <mxGeometry x="425" y="474.5" width="190" height="101" as="geometry"/>
                </mxCell>
                <mxCell id="M_Fn2lDX56Cs01cFmTBk-4" value="- App : AppInstance" style="text;strokeColor=none;fillColor=none;align=left;verticalAlign=top;spacingLeft=4;spacingRight=4;overflow=hidden;rotatable=0;points=[[0,0.5],[1,0.5]];portConstraint=eastwest;" parent="M_Fn2lDX56Cs01cFmTBk-3" vertex="1">
                    <mxGeometry y="41" width="190" height="26" as="geometry"/>
                </mxCell>
                <mxCell id="M_Fn2lDX56Cs01cFmTBk-5" value="" style="line;strokeWidth=1;fillColor=none;align=left;verticalAlign=middle;spacingTop=-1;spacingLeft=3;spacingRight=3;rotatable=0;labelPosition=right;points=[];portConstraint=eastwest;strokeColor=inherit;" parent="M_Fn2lDX56Cs01cFmTBk-3" vertex="1">
                    <mxGeometry y="67" width="190" height="8" as="geometry"/>
                </mxCell>
                <mxCell id="M_Fn2lDX56Cs01cFmTBk-6" value="+ GetAppInstance() : AppInstance" style="text;strokeColor=none;fillColor=none;align=left;verticalAlign=top;spacingLeft=4;spacingRight=4;overflow=hidden;rotatable=0;points=[[0,0.5],[1,0.5]];portConstraint=eastwest;" parent="M_Fn2lDX56Cs01cFmTBk-3" vertex="1">
                    <mxGeometry y="75" width="190" height="26" as="geometry"/>
                </mxCell>
                <mxCell id="xKE1cE81m3nqjKy4N8sU-1" value="&lt;p style=&quot;margin:0px;margin-top:4px;text-align:center;&quot;&gt;&lt;i&gt;&amp;lt;&amp;lt;Interface&amp;gt;&amp;gt;&lt;/i&gt;&lt;br&gt;&lt;b&gt;ITimeTracker&lt;/b&gt;&lt;/p&gt;&lt;hr size=&quot;1&quot;&gt;&lt;p style=&quot;margin:0px;margin-left:4px;&quot;&gt;+ AppInteractor : Interactor&lt;/p&gt;&lt;hr size=&quot;1&quot;&gt;&lt;p style=&quot;margin:0px;margin-left:4px;&quot;&gt;+ GetCurrentSessionTime (bool) : double&lt;br&gt;&lt;/p&gt;&lt;p style=&quot;margin:0px;margin-left:4px;&quot;&gt;+ GetSessionTimeForDate (DateOnly) : double&lt;/p&gt;&lt;p style=&quot;margin:0px;margin-left:4px;&quot;&gt;+ UpdateTimeValues(TimeSpan) : void&lt;/p&gt;&lt;p style=&quot;margin:0px;margin-left:4px;&quot;&gt;+ TrackTime() : void&lt;/p&gt;" style="verticalAlign=top;align=left;overflow=fill;fontSize=12;fontFamily=Helvetica;html=1;" parent="1" vertex="1">
                    <mxGeometry x="250" y="720" width="260" height="140" as="geometry"/>
                </mxCell>
                <mxCell id="vB-PPDz6NzqkqVzL-LXA-5" style="edgeStyle=none;html=1;dashed=1;dashPattern=8 8;" parent="1" source="vB-PPDz6NzqkqVzL-LXA-1" target="xKE1cE81m3nqjKy4N8sU-1" edge="1">
                    <mxGeometry relative="1" as="geometry"/>
                </mxCell>
                <mxCell id="vB-PPDz6NzqkqVzL-LXA-1" value="TimeTracker" style="swimlane;fontStyle=1;align=center;verticalAlign=top;childLayout=stackLayout;horizontal=1;startSize=26;horizontalStack=0;resizeParent=1;resizeParentMax=0;resizeLast=0;collapsible=1;marginBottom=0;" parent="1" vertex="1">
                    <mxGeometry x="265" y="940" width="160" height="86" as="geometry"/>
                </mxCell>
                <mxCell id="vB-PPDz6NzqkqVzL-LXA-2" value="+ field: type" style="text;strokeColor=none;fillColor=none;align=left;verticalAlign=top;spacingLeft=4;spacingRight=4;overflow=hidden;rotatable=0;points=[[0,0.5],[1,0.5]];portConstraint=eastwest;" parent="vB-PPDz6NzqkqVzL-LXA-1" vertex="1">
                    <mxGeometry y="26" width="160" height="26" as="geometry"/>
                </mxCell>
                <mxCell id="vB-PPDz6NzqkqVzL-LXA-3" value="" style="line;strokeWidth=1;fillColor=none;align=left;verticalAlign=middle;spacingTop=-1;spacingLeft=3;spacingRight=3;rotatable=0;labelPosition=right;points=[];portConstraint=eastwest;strokeColor=inherit;" parent="vB-PPDz6NzqkqVzL-LXA-1" vertex="1">
                    <mxGeometry y="52" width="160" height="8" as="geometry"/>
                </mxCell>
                <mxCell id="vB-PPDz6NzqkqVzL-LXA-4" value="+ method(type): type" style="text;strokeColor=none;fillColor=none;align=left;verticalAlign=top;spacingLeft=4;spacingRight=4;overflow=hidden;rotatable=0;points=[[0,0.5],[1,0.5]];portConstraint=eastwest;" parent="vB-PPDz6NzqkqVzL-LXA-1" vertex="1">
                    <mxGeometry y="60" width="160" height="26" as="geometry"/>
                </mxCell>
                <mxCell id="3iPNuKRFTGDdoeyNfGwK-5" value="" style="edgeStyle=none;html=1;dashed=1;dashPattern=8 8;" parent="1" source="3iPNuKRFTGDdoeyNfGwK-1" target="M_Fn2lDX56Cs01cFmTBk-3" edge="1">
                    <mxGeometry relative="1" as="geometry"/>
                </mxCell>
                <mxCell id="3iPNuKRFTGDdoeyNfGwK-1" value="Interactor" style="swimlane;fontStyle=1;align=center;verticalAlign=top;childLayout=stackLayout;horizontal=1;startSize=26;horizontalStack=0;resizeParent=1;resizeParentMax=0;resizeLast=0;collapsible=1;marginBottom=0;" parent="1" vertex="1">
                    <mxGeometry x="660" y="560" width="160" height="86" as="geometry"/>
                </mxCell>
                <mxCell id="3iPNuKRFTGDdoeyNfGwK-2" value="+ field: type" style="text;strokeColor=none;fillColor=none;align=left;verticalAlign=top;spacingLeft=4;spacingRight=4;overflow=hidden;rotatable=0;points=[[0,0.5],[1,0.5]];portConstraint=eastwest;" parent="3iPNuKRFTGDdoeyNfGwK-1" vertex="1">
                    <mxGeometry y="26" width="160" height="26" as="geometry"/>
                </mxCell>
                <mxCell id="3iPNuKRFTGDdoeyNfGwK-3" value="" style="line;strokeWidth=1;fillColor=none;align=left;verticalAlign=middle;spacingTop=-1;spacingLeft=3;spacingRight=3;rotatable=0;labelPosition=right;points=[];portConstraint=eastwest;strokeColor=inherit;" parent="3iPNuKRFTGDdoeyNfGwK-1" vertex="1">
                    <mxGeometry y="52" width="160" height="8" as="geometry"/>
                </mxCell>
                <mxCell id="3iPNuKRFTGDdoeyNfGwK-4" value="+ method(type): type" style="text;strokeColor=none;fillColor=none;align=left;verticalAlign=top;spacingLeft=4;spacingRight=4;overflow=hidden;rotatable=0;points=[[0,0.5],[1,0.5]];portConstraint=eastwest;" parent="3iPNuKRFTGDdoeyNfGwK-1" vertex="1">
                    <mxGeometry y="60" width="160" height="26" as="geometry"/>
                </mxCell>
                <mxCell id="NBzz8WkEO_0MQ7WdpvKx-2" value="&lt;p style=&quot;margin:0px;margin-top:4px;text-align:center;&quot;&gt;&lt;b&gt;StaticTimerService&lt;/b&gt;&lt;/p&gt;&lt;hr size=&quot;1&quot;&gt;&lt;p style=&quot;margin:0px;margin-left:4px;&quot;&gt;+ TimeElapsed : EventHandler&amp;lt;int&amp;gt;&lt;/p&gt;&lt;hr size=&quot;1&quot;&gt;&lt;p style=&quot;margin:0px;margin-left:4px;&quot;&gt;+ GetInstance() : StaticTimerService&lt;br&gt;&lt;/p&gt;" style="verticalAlign=top;align=left;overflow=fill;fontSize=12;fontFamily=Helvetica;html=1;" parent="1" vertex="1">
                    <mxGeometry x="310" y="120" width="200" height="90" as="geometry"/>
                </mxCell>
                <mxCell id="wJqPjbKtkDIRBSEz-App-10" style="edgeStyle=none;html=1;" parent="1" source="wJqPjbKtkDIRBSEz-App-1" target="M_Fn2lDX56Cs01cFmTBk-3" edge="1">
                    <mxGeometry relative="1" as="geometry"/>
                </mxCell>
                <mxCell id="wJqPjbKtkDIRBSEz-App-12" style="edgeStyle=none;html=1;" parent="1" source="wJqPjbKtkDIRBSEz-App-1" target="M_Fn2lDX56Cs01cFmTBk-1" edge="1">
                    <mxGeometry relative="1" as="geometry"/>
                </mxCell>
                <mxCell id="wJqPjbKtkDIRBSEz-App-13" style="edgeStyle=none;html=1;" parent="1" source="wJqPjbKtkDIRBSEz-App-1" target="xKE1cE81m3nqjKy4N8sU-1" edge="1">
                    <mxGeometry relative="1" as="geometry"/>
                </mxCell>
                <mxCell id="_B3kjIsg-tNy-zB0qmga-1" style="edgeStyle=none;html=1;" parent="1" source="wJqPjbKtkDIRBSEz-App-1" target="NBzz8WkEO_0MQ7WdpvKx-2" edge="1">
                    <mxGeometry relative="1" as="geometry"/>
                </mxCell>
                <mxCell id="wJqPjbKtkDIRBSEz-App-1" value="&lt;&lt;Interface&gt;&gt;&#10;IAppHandler" style="swimlane;fontStyle=1;align=center;verticalAlign=top;childLayout=stackLayout;horizontal=1;startSize=41;horizontalStack=0;resizeParent=1;resizeParentMax=0;resizeLast=0;collapsible=1;marginBottom=0;" parent="1" vertex="1">
                    <mxGeometry x="30" y="460" width="210" height="130" as="geometry"/>
                </mxCell>
                <mxCell id="wJqPjbKtkDIRBSEz-App-2" value="+ Interactor : IInteractor" style="text;strokeColor=none;fillColor=none;align=left;verticalAlign=top;spacingLeft=4;spacingRight=4;overflow=hidden;rotatable=0;points=[[0,0.5],[1,0.5]];portConstraint=eastwest;" parent="wJqPjbKtkDIRBSEz-App-1" vertex="1">
                    <mxGeometry y="41" width="210" height="39" as="geometry"/>
                </mxCell>
                <mxCell id="wJqPjbKtkDIRBSEz-App-3" value="" style="line;strokeWidth=1;fillColor=none;align=left;verticalAlign=middle;spacingTop=-1;spacingLeft=3;spacingRight=3;rotatable=0;labelPosition=right;points=[];portConstraint=eastwest;strokeColor=inherit;" parent="wJqPjbKtkDIRBSEz-App-1" vertex="1">
                    <mxGeometry y="80" width="210" height="8" as="geometry"/>
                </mxCell>
                <mxCell id="wJqPjbKtkDIRBSEz-App-4" value="+ StartTrackingApp()" style="text;strokeColor=none;fillColor=none;align=left;verticalAlign=top;spacingLeft=4;spacingRight=4;overflow=hidden;rotatable=0;points=[[0,0.5],[1,0.5]];portConstraint=eastwest;" parent="wJqPjbKtkDIRBSEz-App-1" vertex="1">
                    <mxGeometry y="88" width="210" height="42" as="geometry"/>
                </mxCell>
                <mxCell id="wJqPjbKtkDIRBSEz-App-9" style="edgeStyle=none;html=1;dashed=1;dashPattern=12 12;" parent="1" source="wJqPjbKtkDIRBSEz-App-5" target="wJqPjbKtkDIRBSEz-App-1" edge="1">
                    <mxGeometry relative="1" as="geometry"/>
                </mxCell>
                <mxCell id="wJqPjbKtkDIRBSEz-App-5" value="AppHandler" style="swimlane;fontStyle=1;align=center;verticalAlign=top;childLayout=stackLayout;horizontal=1;startSize=26;horizontalStack=0;resizeParent=1;resizeParentMax=0;resizeLast=0;collapsible=1;marginBottom=0;" parent="1" vertex="1">
                    <mxGeometry x="25" y="240" width="210" height="114" as="geometry"/>
                </mxCell>
                <mxCell id="wJqPjbKtkDIRBSEz-App-6" value="- _stateChecker L IAppStateChecker&#10;- _timeTracker : IAppTimeTracker&#10;- _ioService : IAppIOService" style="text;strokeColor=none;fillColor=none;align=left;verticalAlign=top;spacingLeft=4;spacingRight=4;overflow=hidden;rotatable=0;points=[[0,0.5],[1,0.5]];portConstraint=eastwest;" parent="wJqPjbKtkDIRBSEz-App-5" vertex="1">
                    <mxGeometry y="26" width="210" height="54" as="geometry"/>
                </mxCell>
                <mxCell id="wJqPjbKtkDIRBSEz-App-7" value="" style="line;strokeWidth=1;fillColor=none;align=left;verticalAlign=middle;spacingTop=-1;spacingLeft=3;spacingRight=3;rotatable=0;labelPosition=right;points=[];portConstraint=eastwest;strokeColor=inherit;" parent="wJqPjbKtkDIRBSEz-App-5" vertex="1">
                    <mxGeometry y="80" width="210" height="8" as="geometry"/>
                </mxCell>
                <mxCell id="wJqPjbKtkDIRBSEz-App-8" value="+ OnTimerElapsed() : void" style="text;strokeColor=none;fillColor=none;align=left;verticalAlign=top;spacingLeft=4;spacingRight=4;overflow=hidden;rotatable=0;points=[[0,0.5],[1,0.5]];portConstraint=eastwest;" parent="wJqPjbKtkDIRBSEz-App-5" vertex="1">
                    <mxGeometry y="88" width="210" height="26" as="geometry"/>
                </mxCell>
                <mxCell id="wJqPjbKtkDIRBSEz-App-11" style="edgeStyle=none;html=1;" parent="1" source="2riPED5oYC9T3TNb9gyd-2" target="c5aE6hKna7cGHucHUaRy-1" edge="1">
                    <mxGeometry relative="1" as="geometry"/>
                </mxCell>
                <mxCell id="xpj2CpNyukS95XoH6V6x-5" style="edgeStyle=none;html=1;" parent="1" source="xpj2CpNyukS95XoH6V6x-1" target="2riPED5oYC9T3TNb9gyd-1" edge="1">
                    <mxGeometry relative="1" as="geometry"/>
                </mxCell>
                <mxCell id="xpj2CpNyukS95XoH6V6x-1" value="AppInstanseCreator" style="swimlane;fontStyle=1;align=center;verticalAlign=top;childLayout=stackLayout;horizontal=1;startSize=26;horizontalStack=0;resizeParent=1;resizeParentMax=0;resizeLast=0;collapsible=1;marginBottom=0;" parent="1" vertex="1">
                    <mxGeometry x="570" y="130" width="260" height="60" as="geometry"/>
                </mxCell>
                <mxCell id="xpj2CpNyukS95XoH6V6x-3" value="" style="line;strokeWidth=1;fillColor=none;align=left;verticalAlign=middle;spacingTop=-1;spacingLeft=3;spacingRight=3;rotatable=0;labelPosition=right;points=[];portConstraint=eastwest;strokeColor=inherit;" parent="xpj2CpNyukS95XoH6V6x-1" vertex="1">
                    <mxGeometry y="26" width="260" height="8" as="geometry"/>
                </mxCell>
                <mxCell id="xpj2CpNyukS95XoH6V6x-4" value="+ CreateAppInstanceToTrack() : AppInstance" style="text;strokeColor=none;fillColor=none;align=left;verticalAlign=top;spacingLeft=4;spacingRight=4;overflow=hidden;rotatable=0;points=[[0,0.5],[1,0.5]];portConstraint=eastwest;" parent="xpj2CpNyukS95XoH6V6x-1" vertex="1">
                    <mxGeometry y="34" width="260" height="26" as="geometry"/>
                </mxCell>
            </root>
        </mxGraphModel>
    </diagram>
    <diagram id="BRv02COea-QeACMF_mdt" name="Components">
        <mxGraphModel dx="1071" dy="827" grid="1" gridSize="10" guides="1" tooltips="1" connect="1" arrows="1" fold="1" page="1" pageScale="1" pageWidth="850" pageHeight="1100" math="0" shadow="0">
            <root>
                <mxCell id="0"/>
                <mxCell id="1" parent="0"/>
                <mxCell id="kXVfCSl4jr0CTvzGOh9C-1" value="«interface»&lt;br&gt;&lt;b&gt;IDataIssuer&lt;/b&gt;&lt;br&gt;(видає аппВМ як інфу для зовнішніх юзерів)" style="html=1;whiteSpace=wrap;" parent="1" vertex="1">
                    <mxGeometry x="340" y="440" width="150" height="80" as="geometry"/>
                </mxCell>
                <mxCell id="kXVfCSl4jr0CTvzGOh9C-2" value="«interface»&lt;br&gt;&lt;b&gt;IReadData&lt;/b&gt;&lt;br&gt;(зчитує інфу з файлу з аппками)" style="html=1;whiteSpace=wrap;" parent="1" vertex="1">
                    <mxGeometry x="40" y="80" width="140" height="80" as="geometry"/>
                </mxCell>
                <mxCell id="kXVfCSl4jr0CTvzGOh9C-3" value="«interface»&lt;br&gt;&lt;b&gt;IWriteData&lt;/b&gt;&lt;br&gt;(записує інфу в файл з аппками)" style="html=1;whiteSpace=wrap;" parent="1" vertex="1">
                    <mxGeometry x="230" y="80" width="140" height="80" as="geometry"/>
                </mxCell>
                <mxCell id="kXVfCSl4jr0CTvzGOh9C-4" value="«interface»&lt;br&gt;&lt;b&gt;IAppHandler&lt;/b&gt;&lt;br&gt;(проводить дії над аппкою)" style="html=1;whiteSpace=wrap;" parent="1" vertex="1">
                    <mxGeometry x="140" y="240" width="150" height="80" as="geometry"/>
                </mxCell>
                <mxCell id="kXVfCSl4jr0CTvzGOh9C-5" value="«interface»&lt;br&gt;&lt;b&gt;IAppInstanceCreate&lt;/b&gt;&lt;br&gt;(створює нову аппку ту трек)" style="html=1;whiteSpace=wrap;" parent="1" vertex="1">
                    <mxGeometry x="50" y="440" width="160" height="80" as="geometry"/>
                </mxCell>
                <mxCell id="kXVfCSl4jr0CTvzGOh9C-6" value="«interface»&lt;br&gt;&lt;b&gt;IProcessesGet&lt;/b&gt;&lt;br&gt;(формує список унік процесів зараз)" style="whiteSpace=wrap;html=1;" parent="1" vertex="1">
                    <mxGeometry x="510" y="180" width="140" height="70" as="geometry"/>
                </mxCell>
            </root>
        </mxGraphModel>
    </diagram>
    <diagram id="PUmWmaKJ7k-YxO_VZ2uD" name="UseCases">
        <mxGraphModel dx="1071" dy="827" grid="1" gridSize="10" guides="1" tooltips="1" connect="1" arrows="1" fold="1" page="1" pageScale="1" pageWidth="850" pageHeight="1100" background="none" math="0" shadow="0">
            <root>
                <mxCell id="0"/>
                <mxCell id="1" parent="0"/>
                <mxCell id="dMN4HTIztsLSaWl279la-11" style="edgeStyle=none;html=1;" parent="1" source="dMN4HTIztsLSaWl279la-1" target="dMN4HTIztsLSaWl279la-2" edge="1">
                    <mxGeometry relative="1" as="geometry"/>
                </mxCell>
                <mxCell id="dMN4HTIztsLSaWl279la-15" style="edgeStyle=none;html=1;" parent="1" source="dMN4HTIztsLSaWl279la-1" target="dMN4HTIztsLSaWl279la-3" edge="1">
                    <mxGeometry relative="1" as="geometry"/>
                </mxCell>
                <mxCell id="dMN4HTIztsLSaWl279la-1" value="User" style="shape=umlActor;verticalLabelPosition=bottom;verticalAlign=top;html=1;" parent="1" vertex="1">
                    <mxGeometry x="370" y="430" width="30" height="60" as="geometry"/>
                </mxCell>
                <mxCell id="dMN4HTIztsLSaWl279la-12" style="edgeStyle=none;html=1;" parent="1" source="dMN4HTIztsLSaWl279la-2" target="dMN4HTIztsLSaWl279la-7" edge="1">
                    <mxGeometry relative="1" as="geometry"/>
                </mxCell>
                <mxCell id="0_K2Uuh_r8VEKyFQl3do-5" style="edgeStyle=none;html=1;fontSize=13;" edge="1" parent="1" source="dMN4HTIztsLSaWl279la-2" target="0_K2Uuh_r8VEKyFQl3do-4">
                    <mxGeometry relative="1" as="geometry"/>
                </mxCell>
                <mxCell id="dMN4HTIztsLSaWl279la-2" value="Track App" style="ellipse;whiteSpace=wrap;html=1;" parent="1" vertex="1">
                    <mxGeometry x="310" y="280" width="140" height="70" as="geometry"/>
                </mxCell>
                <mxCell id="dMN4HTIztsLSaWl279la-3" value="Change Theme Light/Dark" style="ellipse;whiteSpace=wrap;html=1;" parent="1" vertex="1">
                    <mxGeometry x="310" y="570" width="140" height="70" as="geometry"/>
                </mxCell>
                <mxCell id="0_K2Uuh_r8VEKyFQl3do-1" style="edgeStyle=none;html=1;fontSize=13;dashed=1;" edge="1" parent="1" source="dMN4HTIztsLSaWl279la-7" target="dMN4HTIztsLSaWl279la-8">
                    <mxGeometry relative="1" as="geometry"/>
                </mxCell>
                <mxCell id="dMN4HTIztsLSaWl279la-7" value="Add App to Track" style="ellipse;whiteSpace=wrap;html=1;" parent="1" vertex="1">
                    <mxGeometry x="120" y="160" width="140" height="70" as="geometry"/>
                </mxCell>
                <mxCell id="dMN4HTIztsLSaWl279la-8" value="Remove App from Tracking" style="ellipse;whiteSpace=wrap;html=1;" parent="1" vertex="1">
                    <mxGeometry x="310" y="30" width="140" height="70" as="geometry"/>
                </mxCell>
                <mxCell id="0_K2Uuh_r8VEKyFQl3do-4" value="Refresh / Run Director Once" style="ellipse;whiteSpace=wrap;html=1;fontSize=13;" vertex="1" parent="1">
                    <mxGeometry x="530" y="140" width="140" height="70" as="geometry"/>
                </mxCell>
            </root>
        </mxGraphModel>
    </diagram>
    <diagram id="Dejo6b93_JO_sXRvDogZ" name="ChangeSettingsClasses">
        <mxGraphModel dx="1071" dy="827" grid="1" gridSize="10" guides="1" tooltips="1" connect="1" arrows="1" fold="1" page="1" pageScale="1" pageWidth="850" pageHeight="1100" math="0" shadow="0">
            <root>
                <mxCell id="0"/>
                <mxCell id="1" parent="0"/>
            </root>
        </mxGraphModel>
    </diagram>
</mxfile>